 <!DOCTYPE svg PUBLIC "-//W3C//DTD SVG 1.1//EN" "http://www.w3.org/Graphics/SVG/1.1/DTD/svg11.dtd">
<svg id="ef3454ca-aeaa-45d0-9fb1-dc76becb3f47" data-name="Layer 1" xmlns="http://www.w3.org/2000/svg" xmlns:xlink="http://www.w3.org/1999/xlink" width="865.76" height="682.89" viewBox="0 0 865.76 682.89">
<defs>
<clipPath id="f3805956-1f65-4fdb-b947-6bf24d515507">
<path id="e292387d-5f3b-4a30-a243-b166c063a13e" data-name="SVGID" d="M126.44,344s28.56-5.38,54.77-2.69l127.69,4S368,356.78,364,448.18c0,0-5.38,82-51.75,88,0,0-30.17,1.52-36.85-1.38,0,0-17.46.89-30.77,2.88a68,68,0,0,1-11.85.72l-106.35-2.89Z" fill="#d1d3d4"/>
</clipPath>
<clipPath id="a27317b8-e13c-4795-86ae-8200a861de36">
<path id="ad04a195-ac9b-48c4-98d1-4200e7ef0be8" data-name="SVGID" d="M252.6,317.11s34.51-6.5,66.18-3.25l154.3,4.87S544.54,332.54,539.67,443c0,0-6.49,99.08-62.53,106.39,0,0-36.45,1.83-44.53-1.68,0,0-21.1,1.09-37.18,3.49a81.57,81.57,0,0,1-14.31.86L252.6,548.56Z" fill="#d1d3d4"/>
</clipPath>
<clipPath id="e0d76d9c-f17c-4dbb-9927-caea7ff5eaf1">
<path id="a3643753-9207-4b69-a454-ac6d54059b32" data-name="SVGID" d="M507.62,333.25s31.41-5.92,60.23-3l140.42,4.43s65,12.57,60.6,113.07c0,0-5.92,90.16-56.91,96.82,0,0-33.17,1.67-40.52-1.53,0,0-19.2,1-33.84,3.17a73.65,73.65,0,0,1-13,.79l-117-3.17Z" fill="#d1d3d4"/>
</clipPath>
<style xmlns="http://www.w3.org/1999/xhtml">*, ::after, ::before { box-sizing: border-box; }
img, svg { vertical-align: middle; }
</style>
<style xmlns="http://www.w3.org/1999/xhtml">*, body, html { -webkit-font-smoothing: antialiased; }
img, svg { max-width: 100%; }
</style>
</defs>
<path d="M107.28,522s-117.56,14-77.94,28.11c0,0,125.22,11.5,90.72,28.11,0,0-38.33,8.95,14.06,15.34l153.34,7.66s57.5,1.28,29.38,15.34c0,0-26.83,11.5,17.89,12.78,0,0,190.4,15.33,147-9,0,0-24.28-6.39,31.95-8.94,0,0,244.06,7.66,190.39-20.45,0,0-29.39-12.78,24.28-21.72,0,0,140.56-5.11,109.89-26.84a101.92,101.92,0,0,0-54.94-8.94s80.5-23-17.89-10.22c0,0,69-33.23,79.22-52.39,0,0-47.28-1.28-61.33,20.44L753.86,522l30.67-54.95s-16.62,5.11-24.28,17.89Z" fill="#ebebeb"/>
<path d="M118.78,534.78s-44.72,16.61-5.11,17.89c0,0,196.79,10.22,240.23,7.66,0,0-17.89,12.78,35.78,16.61,0,0,102.23,7.67,76.67-21.72,0,0,411.46,11.08,265.79-18.74L250.4,525.83Z" fill="#bcbec0"/>
<path id="ed8461e2-e160-4c15-8154-40cc8c94367a" data-name="SVGID" d="M126.44,344s28.56-5.38,54.77-2.69l127.69,4S368,356.78,364,448.18c0,0-5.38,82-51.75,88,0,0-30.17,1.52-36.85-1.38,0,0-17.46.89-30.77,2.88a68,68,0,0,1-11.85.72l-106.35-2.89Z" fill="#d1d3d4"/>
<g clip-path="url(#f3805956-1f65-4fdb-b947-6bf24d515507)">
<path d="M169.59,445.56s3.47,38.52,10,47.93a4.5,4.5,0,0,0,3.11,1.88l19.85,2.49a7.84,7.84,0,0,0,5.52-1.37c5-3.55,15.94-12.27,19.46-23.44,0,0,2.33,7.75-2.32,21.3,0,0-1.16,7,7,8.14h13.17s18.21-23.24,27.5-38c0,0-5.81,22.46-10.84,34.47,0,0-2.33,3.87,4.26,2.71,0,0,20.53,2.33,24.4-6.58,0,0,3.1-20.14,11.23-17.05,0,0,3.1,1.17,8.14,7,0,0,4.64,7.36,9.68.77,0,0,18.59-18.2,22.08-27.11,0,0,0,23.24-1.17,28.66,0,0,17.05-15.88,22.86-32.54,0,0-7.75,59.65-32.93,74,0,0-8,7-18.34,7.38,0,0-31.62,1.52-36.85-1.38,0,0-13.17.77-26.34,2.32,0,0-10.85,1.94-19.17,1.17l-103.46-2.78s26.38,2.19,38.58-52.42C165,483.12,170.1,463.2,169.59,445.56Z" opacity="0.2"/>
</g>
<line x1="193.39" y1="445.08" x2="207.64" y2="456.01" fill="none" stroke="#bcbec0" stroke-miterlimit="10" stroke-width="2"/>
<path d="M190.06,426.07l12.64,11.56a26.41,26.41,0,0,1,6.22,8.58l4.43,9.8" fill="none" stroke="#bcbec0" stroke-miterlimit="10" stroke-width="2"/>
<path d="M220.79,407.88l5.69,9.18a9.81,9.81,0,0,1,1.37,6.54l-1,6.65" fill="none" stroke="#bcbec0" stroke-miterlimit="10" stroke-width="2"/>
<line x1="239.39" y1="410.2" x2="234.16" y2="423.57" fill="none" stroke="#bcbec0" stroke-miterlimit="10" stroke-width="2"/>
<line x1="185.06" y1="354.43" x2="192.33" y2="378.54" fill="none" stroke="#bcbec0" stroke-miterlimit="10" stroke-width="2"/>
<path d="M201.62,355.3,197.15,366a8.78,8.78,0,0,0-.68,3.76l.21,5.59" fill="none" stroke="#bcbec0" stroke-miterlimit="10" stroke-width="2"/>
<line x1="246.65" y1="373.02" x2="270.18" y2="392.77" fill="none" stroke="#bcbec0" stroke-miterlimit="10" stroke-width="2"/>
<line x1="273.38" y1="384.93" x2="266.98" y2="367.21" fill="none" stroke="#bcbec0" stroke-miterlimit="10" stroke-width="2"/>
<line x1="274.83" y1="445.35" x2="288.19" y2="414.56" fill="none" stroke="#bcbec0" stroke-miterlimit="10" stroke-width="2"/>
<path d="M284.12,441.29s8.14-12.78,14.53-17.43" fill="none" stroke="#bcbec0" stroke-miterlimit="10" stroke-width="2"/>
<path d="M319.56,429.09l3.15-6.29a21.16,21.16,0,0,0,2-6.33l1.82-11.79" fill="none" stroke="#bcbec0" stroke-miterlimit="10" stroke-width="2"/>
<line x1="326.54" y1="424.44" x2="349.2" y2="407.59" fill="none" stroke="#bcbec0" stroke-miterlimit="10" stroke-width="2"/>
<line x1="363.4" y1="445.36" x2="381.58" y2="430.39" fill="none" stroke="#bcbec0" stroke-miterlimit="10" stroke-width="2"/>
<line x1="378.91" y1="448.04" x2="364.01" y2="448.18" fill="none" stroke="#bcbec0" stroke-miterlimit="10" stroke-width="2"/>
<line x1="316.35" y1="347.53" x2="321.7" y2="334.16" fill="none" stroke="#bcbec0" stroke-miterlimit="10" stroke-width="2"/>
<polyline points="320.1 349.66 326.51 344.85 330.79 334.69" fill="none" stroke="#bcbec0" stroke-miterlimit="10" stroke-width="2"/>
<line x1="288" y1="339.81" x2="293.81" y2="344.84" fill="none" stroke="#bcbec0" stroke-miterlimit="10" stroke-width="2"/>
<polyline points="297.29 335.93 300.39 343.68 300.39 347.17" fill="none" stroke="#bcbec0" stroke-miterlimit="10" stroke-width="2"/>
<ellipse cx="126.44" cy="439.78" rx="43.35" ry="95.77" fill="#bcbec0"/>
<path d="M111.57,522.05s12.81,6.68,19.34-1.22a8,8,0,0,0,.77-1.15,185.12,185.12,0,0,0,17.89-50.19,125.15,125.15,0,0,0-4-64c-8-24.27-20.87-56-29.43-40.54-1.81,3.27-3.78,6.44-5.82,9.58-6.71,10.37-19,33.84-17.33,64.46,0,0,0,51.13,9.3,60.43,0,0,18,22.66,24.4,2.32,0,0,14.39-60.2-3.27-95.92a2.74,2.74,0,0,0-4.93,0c-5.66,12-18.06,45.4.54,78a2.31,2.31,0,0,0,4.14-.29l1.78-4.45" fill="none" stroke="#939598" stroke-miterlimit="10" stroke-width="3" opacity="0.2"/>
<path id="f356c113-ece2-414f-907d-ef42fbcac469" data-name="SVGID" d="M252.6,317.11s34.51-6.5,66.18-3.25l154.3,4.87S544.54,332.54,539.67,443c0,0-6.49,99.08-62.53,106.39,0,0-36.45,1.83-44.53-1.68,0,0-21.1,1.09-37.18,3.49a81.57,81.57,0,0,1-14.31.86L252.6,548.56Z" fill="#d1d3d4"/>
<g clip-path="url(#a27317b8-e13c-4795-86ae-8200a861de36)">
<path d="M304.74,439.83s4.19,46.54,12.14,57.91a5.37,5.37,0,0,0,3.76,2.27l24,3a9.48,9.48,0,0,0,6.67-1.66c6.09-4.29,19.25-14.82,23.52-28.32,0,0,2.81,9.36-2.81,25.74,0,0-1.41,8.43,8.42,9.83h15.92s22-28.08,33.23-45.87c0,0-7,27.15-13.11,41.66,0,0-2.8,4.68,5.15,3.28,0,0,24.81,2.8,29.49-8,0,0,3.74-24.34,13.57-20.6,0,0,3.75,1.41,9.83,8.43,0,0,5.62,8.89,11.7.94,0,0,22.47-22,26.68-32.77,0,0,0,28.08-1.4,34.64,0,0,20.59-19.19,27.61-39.32,0,0-9.36,72.08-39.78,89.4,0,0-9.7,8.49-22.17,8.93,0,0-38.21,1.83-44.53-1.68,0,0-15.91.94-31.83,2.81,0,0-13.1,2.34-23.16,1.41l-125-3.35s31.87,2.64,46.62-63.35C299.22,485.21,305.36,461.14,304.74,439.83Z" opacity="0.2"/>
</g>
<line x1="333.5" y1="439.24" x2="350.72" y2="452.45" fill="none" stroke="#bcbec0" stroke-miterlimit="10" stroke-width="2"/>
<path d="M329.48,416.27l15.27,14a32,32,0,0,1,7.52,10.38l5.34,11.84" fill="none" stroke="#bcbec0" stroke-miterlimit="10" stroke-width="2"/>
<path d="M366.62,394.29l6.86,11.1a11.82,11.82,0,0,1,1.66,7.89l-1.15,8" fill="none" stroke="#bcbec0" stroke-miterlimit="10" stroke-width="2"/>
<line x1="389.08" y1="397.1" x2="382.76" y2="413.25" fill="none" stroke="#bcbec0" stroke-miterlimit="10" stroke-width="2"/>
<line x1="323.44" y1="329.7" x2="332.21" y2="358.83" fill="none" stroke="#bcbec0" stroke-miterlimit="10" stroke-width="2"/>
<path d="M343.45,330.75,338,343.66a10.75,10.75,0,0,0-.82,4.55l.26,6.76" fill="none" stroke="#bcbec0" stroke-miterlimit="10" stroke-width="2"/>
<line x1="397.86" y1="352.16" x2="426.29" y2="376.04" fill="none" stroke="#bcbec0" stroke-miterlimit="10" stroke-width="2"/>
<line x1="430.15" y1="366.56" x2="422.43" y2="345.14" fill="none" stroke="#bcbec0" stroke-miterlimit="10" stroke-width="2"/>
<line x1="431.91" y1="439.57" x2="448.06" y2="402.36" fill="none" stroke="#bcbec0" stroke-miterlimit="10" stroke-width="2"/>
<path d="M443.14,434.66s9.83-15.45,17.55-21.06" fill="none" stroke="#bcbec0" stroke-miterlimit="10" stroke-width="2"/>
<path d="M486,419.92l3.8-7.61a25.92,25.92,0,0,0,2.43-7.64l2.19-14.24" fill="none" stroke="#bcbec0" stroke-miterlimit="10" stroke-width="2"/>
<line x1="494.39" y1="414.3" x2="521.78" y2="393.94" fill="none" stroke="#bcbec0" stroke-miterlimit="10" stroke-width="2"/>
<line x1="538.94" y1="439.58" x2="560.91" y2="421.49" fill="none" stroke="#bcbec0" stroke-miterlimit="10" stroke-width="2"/>
<line x1="557.68" y1="442.81" x2="539.67" y2="442.98" fill="none" stroke="#bcbec0" stroke-miterlimit="10" stroke-width="2"/>
<line x1="482.09" y1="321.36" x2="488.55" y2="305.21" fill="none" stroke="#bcbec0" stroke-miterlimit="10" stroke-width="2"/>
<polyline points="486.61 323.94 494.37 318.13 499.53 305.85" fill="none" stroke="#bcbec0" stroke-miterlimit="10" stroke-width="2"/>
<line x1="447.82" y1="312.03" x2="454.84" y2="318.11" fill="none" stroke="#bcbec0" stroke-miterlimit="10" stroke-width="2"/>
<polyline points="459.06 307.35 462.8 316.71 462.8 320.92" fill="none" stroke="#bcbec0" stroke-miterlimit="10" stroke-width="2"/>
<ellipse cx="252.6" cy="432.83" rx="52.38" ry="115.72" fill="#bcbec0"/>
<path d="M234.62,532.25s15.49,8.08,23.38-1.47a8.67,8.67,0,0,0,.92-1.4c2.48-4.43,15-28,21.63-60.64a151.31,151.31,0,0,0-4.86-77.37c-9.67-29.33-25.22-67.67-35.56-49-2.18,3.95-4.58,7.79-7,11.58-8.12,12.54-23,40.89-20.94,77.9,0,0,0,61.78,11.23,73,0,0,21.77,27.38,29.49,2.81,0,0,17.38-72.75-3.95-115.91a3.31,3.31,0,0,0-6,0c-6.84,14.49-21.83,54.86.65,94.22a2.78,2.78,0,0,0,5-.35l2.15-5.38" fill="none" stroke="#939598" stroke-miterlimit="10" stroke-width="3" opacity="0.2"/>
<path id="b5ed991c-7d21-4082-9434-bc102dc11a90" data-name="SVGID" d="M507.62,333.25s31.41-5.92,60.23-3l140.42,4.43s65,12.57,60.6,113.07c0,0-5.92,90.16-56.91,96.82,0,0-33.17,1.67-40.52-1.53,0,0-19.2,1-33.84,3.17a73.65,73.65,0,0,1-13,.79l-117-3.17Z" fill="#d1d3d4"/>
<g clip-path="url(#e0d76d9c-f17c-4dbb-9927-caea7ff5eaf1)">
<path d="M555.08,444.92s3.81,42.35,11,52.71a5,5,0,0,0,3.42,2.06l21.83,2.74a8.64,8.64,0,0,0,6.06-1.51C603,497,615,487.43,618.84,475.15c0,0,2.55,8.51-2.56,23.42,0,0-1.28,7.67,7.67,8.95h14.48s20-25.56,30.24-41.75c0,0-6.39,24.71-11.93,37.91,0,0-2.55,4.26,4.69,3,0,0,22.57,2.56,26.83-7.24,0,0,3.41-22.15,12.36-18.74,0,0,3.4,1.28,8.94,7.67,0,0,5.11,8.09,10.65.85,0,0,20.44-20,24.28-29.81,0,0,0,25.55-1.28,31.52,0,0,18.74-17.47,25.13-35.78,0,0-8.52,65.59-36.2,81.35,0,0-8.83,7.73-20.18,8.13,0,0-34.77,1.67-40.52-1.53,0,0-14.48.85-29,2.56,0,0-11.93,2.13-21.09,1.28l-113.77-3s29,2.41,42.43-57.65C550.05,486.22,555.63,464.32,555.08,444.92Z" opacity="0.2"/>
</g>
<line x1="581.24" y1="444.39" x2="596.92" y2="456.41" fill="none" stroke="#bcbec0" stroke-miterlimit="10" stroke-width="2"/>
<path d="M577.59,423.49l13.89,12.7a28.78,28.78,0,0,1,6.84,9.44l4.87,10.78" fill="none" stroke="#bcbec0" stroke-miterlimit="10" stroke-width="2"/>
<path d="M611.38,403.48l6.25,10.1a10.78,10.78,0,0,1,1.51,7.18l-1,7.32" fill="none" stroke="#bcbec0" stroke-miterlimit="10" stroke-width="2"/>
<line x1="631.83" y1="406.04" x2="626.08" y2="420.73" fill="none" stroke="#bcbec0" stroke-miterlimit="10" stroke-width="2"/>
<line x1="572.09" y1="344.7" x2="580.08" y2="371.22" fill="none" stroke="#bcbec0" stroke-miterlimit="10" stroke-width="2"/>
<path d="M590.3,345.66l-4.92,11.75a9.79,9.79,0,0,0-.75,4.14l.24,6.15" fill="none" stroke="#bcbec0" stroke-miterlimit="10" stroke-width="2"/>
<line x1="639.81" y1="365.15" x2="665.69" y2="386.87" fill="none" stroke="#bcbec0" stroke-miterlimit="10" stroke-width="2"/>
<line x1="669.2" y1="378.24" x2="662.17" y2="358.76" fill="none" stroke="#bcbec0" stroke-miterlimit="10" stroke-width="2"/>
<line x1="670.8" y1="444.69" x2="685.5" y2="410.83" fill="none" stroke="#bcbec0" stroke-miterlimit="10" stroke-width="2"/>
<path d="M681,440.22s9-14.06,16-19.17" fill="none" stroke="#bcbec0" stroke-miterlimit="10" stroke-width="2"/>
<path d="M720,426.8l3.46-6.92a23.6,23.6,0,0,0,2.21-6.95l2-13" fill="none" stroke="#bcbec0" stroke-miterlimit="10" stroke-width="2"/>
<line x1="727.66" y1="421.69" x2="752.58" y2="403.16" fill="none" stroke="#bcbec0" stroke-miterlimit="10" stroke-width="2"/>
<line x1="768.2" y1="444.7" x2="788.19" y2="428.24" fill="none" stroke="#bcbec0" stroke-miterlimit="10" stroke-width="2"/>
<line x1="785.25" y1="447.64" x2="768.87" y2="447.79" fill="none" stroke="#bcbec0" stroke-miterlimit="10" stroke-width="2"/>
<line x1="716.47" y1="337.11" x2="722.34" y2="322.41" fill="none" stroke="#bcbec0" stroke-miterlimit="10" stroke-width="2"/>
<polyline points="720.58 339.46 727.64 334.17 732.34 323" fill="none" stroke="#bcbec0" stroke-miterlimit="10" stroke-width="2"/>
<line x1="685.28" y1="328.62" x2="691.67" y2="334.16" fill="none" stroke="#bcbec0" stroke-miterlimit="10" stroke-width="2"/>
<polyline points="695.5 324.36 698.91 332.88 698.91 336.71" fill="none" stroke="#bcbec0" stroke-miterlimit="10" stroke-width="2"/>
<ellipse cx="507.62" cy="438.56" rx="47.67" ry="105.31" fill="#bcbec0"/>
<path d="M491.27,529s14.09,7.35,21.27-1.34a9.62,9.62,0,0,0,.84-1.27,203.29,203.29,0,0,0,19.68-55.19,137.72,137.72,0,0,0-4.42-70.41c-8.81-26.69-23-61.58-32.36-44.58-2,3.59-4.17,7.08-6.4,10.53C482.49,378.18,469,404,470.82,437.66c0,0,0,56.23,10.22,66.45,0,0,19.81,24.92,26.84,2.55,0,0,15.82-66.2-3.6-105.47a3,3,0,0,0-5.42,0c-6.22,13.18-19.86,49.92.59,85.74a2.53,2.53,0,0,0,4.55-.32l2-4.89" fill="none" stroke="#939598" stroke-miterlimit="10" stroke-width="3" opacity="0.2"/>
<path d="M504.11,214.72l3.92,8.36-10.49.21s.44-3.88-.42-5.88Z" fill="#f9b499"/>
<path d="M359.65,589.8l.37,6.91s11.86-1.87,10.14-18.41C370.16,578.3,369.76,583.38,359.65,589.8Z" fill="#2f2e41" data-secondary="true"/>
<path d="M360,596.71l-5.11-2.11s-.73.13,1.79-2.11a26.67,26.67,0,0,1,3.1-2.58Z" fill="#2f2e41" data-secondary="true"/>
<path d="M360,596.71l-5.11-2.11s-.73.13,1.79-2.11a26.67,26.67,0,0,1,3.1-2.58Z" opacity="0.2"/>
<path d="M432.48,601.4s0,12.58,16.75,16a25.89,25.89,0,0,0,12.31-.39c5.1-1.47,10.24-4.92,6.82-12.92Z" fill="#2f2e41" data-secondary="true"/>
<polygon points="423.32 597.56 428.88 596.37 423.5 591.45 423.32 597.56" fill="#2f2e41" data-secondary="true"/>
<polygon points="423.32 597.56 428.88 596.37 423.5 591.45 423.32 597.56" opacity="0.2"/>
<path d="M413.61,581s-2.34,9.71,9.71,16.54l.18-6.11-4.8-4.08S414.47,586.93,413.61,581Z" fill="#2f2e41" data-secondary="true"/>
<path d="M367.11,142.18s-18.72,7.17-27.14,8.73c0,0-11.55.63-16.85,18.72,0,0-22.46,50.85-30.57,58.34,0,0-4.37,5.31-2.81,9.05,0,0,10-1.25,21.21,9.67,0,0,6.87,5,7.8,9.36a67.06,67.06,0,0,0,12.48-24s3.36-9.51,7.16-12.64a5.51,5.51,0,0,1,.64-.47l.31,57.1,106,.35-5.51-62.13,33.7,6.24s10.6-15,21.52-16.22c0,0-8.42-14-16.53-18.41,0,0-12.48-10.6-17.79-19,0,0-9.67-12.16-18.09-15,0,0-11.54-8.11-15.29-8.43Z" fill="#0071f2" data-primary="true"/>
<path d="M415.71,151.65c-14.65,15-20.59,35.88-20.59,35.88l-6.86-16.22a92.14,92.14,0,0,1-10-27.14,3.85,3.85,0,0,1,.61-2.83c6.71-10.5,4.56-28.5,4.56-28.5l.12.59c3.39,12.5,12,21.38,22.19,21.38A18.69,18.69,0,0,0,417,130.86C419.12,150.1,415.71,151.65,415.71,151.65Z" fill="#f9b499"/>
<path d="M347.54,149.17s-.15,40.24,3.28,48c0,0,6.24,1.25,10.61-2.81l-3.28-49.29Z" fill="#2f2e41" data-secondary="true"/>
<path d="M428.1,196.06s5.67-33,6.71-49.74c0,0,7.27.55,9.69,5.84a190.41,190.41,0,0,0-2.86,23.55,111.15,111.15,0,0,1-1.95,16.47c-.75,3.72-1.6,7.28-2.3,8.42Z" fill="#2f2e41" data-secondary="true"/>
<g opacity="0.2">
<path d="M443.47,212.19l-1,0c.41-8.86,4.94-21.3,5-21.43l.93.35C448.35,191.19,443.87,203.49,443.47,212.19Z"/>
</g>
<g opacity="0.2">
<path d="M340.2,218.38l-1,0c.6-18.59-6.42-26.84-6.49-26.92l.75-.66C333.76,191.12,340.82,199.4,340.2,218.38Z"/>
</g>
<path d="M350.82,197.21s-.87,2.88,1.62,3.88c0,0,3.24-2,2.49,7.22,0,0,.5-5.73,6.72-2.49,0,0,2.29-3.91-.22-11.42A12.78,12.78,0,0,1,350.82,197.21Z" fill="none" stroke="#2f2e41" stroke-miterlimit="10" stroke-width="0.5"/>
<path d="M428.1,196.06s-1.7,3-.53,4.69a5.5,5.5,0,0,1,1.08,3.08v3.24a4.08,4.08,0,0,1,4,1,4.3,4.3,0,0,1,2.13-2.32,3.29,3.29,0,0,0,2.06-2.22l.57-2.92Z" fill="none" stroke="#2f2e41" stroke-miterlimit="10" stroke-width="0.5"/>
<path d="M448.31,317l-7.64-97.5c-.93-16.54-6.55-13.26-6.55-13.26l-5.37-.73c-15.27,3.14-65.92-2.55-65.92-2.55l-1.18,2.84-.33.27a4,4,0,1,1-6.09,5l0,0c-4.06,3-7.49,23.4-7.49,23.4-.47,12.47-6.55,34.31-6.55,34.31-6.64,17.18-5.13,40.87-4.45,48.25a9.6,9.6,0,0,1-.53,4.12c-7.15,20,.3,92.71.3,92.71,5.61,22,3.27,59.43,3.27,59.43-3.74,6.55-.46,14.51-.46,14.51,15.44,15,36,1.87,36,1.87,7-3.28,8.42-47.27,8.42-47.27,0-35.1,7.49-56.62,7.49-56.62,7.49,17.78,12.64,89.85,12.64,89.85-1.41,10.76,0,14,0,14,27.61,13.57,39.31-2.81,39.31-2.81,5.61-7,3.27-56.16,3.27-56.16l5.15-74.4C453.46,336.67,448.31,317,448.31,317ZM430.92,212.19A2.68,2.68,0,1,1,433,209,2.68,2.68,0,0,1,430.92,212.19Z" fill="#2f2e41" data-secondary="true"/>
<g opacity="0.2">
<rect x="325.88" y="335.4" width="35.07" height="1" transform="translate(-125.17 441.68) rotate(-57.09)"/>
</g>
<g opacity="0.2">
<rect x="439.92" y="317.74" width="1" height="33.42" transform="translate(-107.91 262.57) rotate(-29.74)"/>
</g>
<g opacity="0.2">
<path d="M340.6,318.36l-.17-1c.71-.12,70.95-11.93,102.21-1.64l-.31.95C411.31,306.48,341.3,318.24,340.6,318.36Z"/>
</g>
<g opacity="0.2">
<path d="M343,307.59l-.07-1c.73,0,73.29-5.34,97.12-.82l-.18,1C416.2,302.26,343.77,307.54,343,307.59Z"/>
</g>
<g opacity="0.2">
<path d="M377,279.41h-22.4a4.2,4.2,0,0,1-4.2-4.26l.37-27.83,11.76,5.75a2.69,2.69,0,0,0,1.7.23l14.41-2.77a1,1,0,0,0,.73-.58l.84-1.8h1v27.06A4.2,4.2,0,0,1,377,279.41Zm-25.25-30.5-.35,26.26a3.19,3.19,0,0,0,3.2,3.24H377a3.2,3.2,0,0,0,3.19-3.2V250.54a2,2,0,0,1-1.37,1l-14.41,2.77a3.69,3.69,0,0,1-2.32-.31Z"/>
</g>
<path d="M363.75,254.35a3.65,3.65,0,0,1-1.63-.38l-11.06-5.4a2,2,0,0,1-1-1.18,2,2,0,0,1,.13-1.55l2.52-4.8a1.2,1.2,0,0,1,1.08-.63l28.84,1.19a1.17,1.17,0,0,1,.95.56,1.19,1.19,0,0,1,.07,1.1h0l-3.31,7.12a2,2,0,0,1-1.45,1.13l-14.41,2.77A4,4,0,0,1,363.75,254.35Zm-12.31-6.71.07,0,11.05,5.4a2.69,2.69,0,0,0,1.7.23l14.41-2.77a1,1,0,0,0,.73-.58l3.31-7.11a.17.17,0,0,0,0-.16.16.16,0,0,0-.14-.08l-28.84-1.19a.16.16,0,0,0-.16.09L351,246.3a1.05,1.05,0,0,0-.06.78A1,1,0,0,0,351.44,247.64Z" fill="#2f2e41" data-secondary="true"/>
<g opacity="0.2">
<path d="M363.75,254.35a3.65,3.65,0,0,1-1.63-.38l-11.06-5.4a2,2,0,0,1-1-1.18,2,2,0,0,1,.13-1.55l2.52-4.8a1.2,1.2,0,0,1,1.08-.63l28.84,1.19a1.17,1.17,0,0,1,.95.56,1.19,1.19,0,0,1,.07,1.1h0l-3.31,7.12a2,2,0,0,1-1.45,1.13l-14.41,2.77A4,4,0,0,1,363.75,254.35Zm-12.31-6.71.07,0,11.05,5.4a2.69,2.69,0,0,0,1.7.23l14.41-2.77a1,1,0,0,0,.73-.58l3.31-7.11a.17.17,0,0,0,0-.16.16.16,0,0,0-.14-.08l-28.84-1.19a.16.16,0,0,0-.16.09L351,246.3a1.05,1.05,0,0,0-.06.78A1,1,0,0,0,351.44,247.64Z"/>
</g>
<g opacity="0.2">
<path d="M427.39,279.41H405a4.18,4.18,0,0,1-4.2-4.26l.37-27.83,11.76,5.75a2.66,2.66,0,0,0,1.69.23L429,250.53a1.06,1.06,0,0,0,.74-.58l.84-1.8h1v27.06A4.2,4.2,0,0,1,427.39,279.41Zm-25.25-30.5-.35,26.26a3.14,3.14,0,0,0,.92,2.29,3.17,3.17,0,0,0,2.28,1h22.4a3.2,3.2,0,0,0,3.19-3.2V250.54a2,2,0,0,1-1.37,1l-14.41,2.77a3.73,3.73,0,0,1-2.33-.31Z"/>
</g>
<path d="M414.1,254.35a3.71,3.71,0,0,1-1.63-.38l-11.05-5.4a2,2,0,0,1-.91-2.73L403,241a1.22,1.22,0,0,1,1.09-.63L433,241.6a1.17,1.17,0,0,1,1,.56,1.19,1.19,0,0,1,.06,1.1h0l-3.31,7.12a2,2,0,0,1-1.45,1.13l-14.41,2.77A4.05,4.05,0,0,1,414.1,254.35Zm-12.3-6.71.07,0,11.05,5.4a2.66,2.66,0,0,0,1.69.23L429,250.53a1.06,1.06,0,0,0,.74-.58l3.3-7.11a.17.17,0,0,0,0-.16.14.14,0,0,0-.13-.08l-28.84-1.19a.16.16,0,0,0-.16.09l-2.52,4.8a1,1,0,0,0-.06.78A1,1,0,0,0,401.8,247.64Z" fill="#2f2e41" data-secondary="true"/>
<g opacity="0.2">
<path d="M414.1,254.35a3.71,3.71,0,0,1-1.63-.38l-11.05-5.4a2,2,0,0,1-.91-2.73L403,241a1.22,1.22,0,0,1,1.09-.63L433,241.6a1.17,1.17,0,0,1,1,.56,1.19,1.19,0,0,1,.06,1.1h0l-3.31,7.12a2,2,0,0,1-1.45,1.13l-14.41,2.77A4.05,4.05,0,0,1,414.1,254.35Zm-12.3-6.71.07,0,11.05,5.4a2.66,2.66,0,0,0,1.69.23L429,250.53a1.06,1.06,0,0,0,.74-.58l3.3-7.11a.17.17,0,0,0,0-.16.14.14,0,0,0-.13-.08l-28.84-1.19a.16.16,0,0,0-.16.09l-2.52,4.8a1,1,0,0,0-.06.78A1,1,0,0,0,401.8,247.64Z"/>
</g>
<path d="M290.29,236.52s-9,3-7.12,9.48a2.45,2.45,0,0,0,1.85,1.69c5.66,1.18,28.21,6.84,24.93,21.59,0,0,.94,2.5,5-2.81,0,0,5.93-4.37,4.37-10.92C319.31,255.55,309.64,238.39,290.29,236.52Z" fill="#2f2e41" data-secondary="true"/>
<g opacity="0.2">
<path d="M389,205.42c-1.46-7,5.4-17.71,5.7-18.16l.83.55c-.06.1-6.93,10.77-5.55,17.41Z"/>
</g>
<path d="M338.5,485.49s-2.81-.63-2.19,5.77L344,559.43s1.87,11.85-4.06,17.15c0,0-22.34,21.65-24.33,27.15,0,0-5,9.67,7.48,11.54,0,0,23.71,5.3,27.15-13.41,0,0,4.68-7.8,8.73-10.92,0,0,15-7.18,10.3-16.85,0,0-1.25-17.47,1.24-30.26,0,0,12.17-55.85,4.84-54.13,0,0-17.94,11.64-34-.2a8.22,8.22,0,0,1-2.84-4Z" fill="#0071f2" data-primary="true"/>
<path d="M314.62,607.48s20.6,13.72,35.58-5.62c0,0-.63,15-21.53,14.35C328.67,616.21,314,616.49,314.62,607.48Z" fill="#2f2e41" data-secondary="true"/>
<path d="M403.86,489.7l3.51,31.86a61.93,61.93,0,0,0,1.32,7.64c2.28,9.6,8.08,35.67,5.67,43.38,0,0-3.95,12.43,4.47,15.24,0,0,9.84,7,13.89,14a21.44,21.44,0,0,0,8.14,8c5.81,3.22,14.71,6,24,1a6.83,6.83,0,0,0,3.23-3.61c.74-2.09.62-5.18-3.44-8.73l-19-18.4s-9.36-7.18-6.86-25.9l4.65-49.46a44.59,44.59,0,0,1,1.06-6.18c.9-3.76,2-10.38-1.34-11.59C443.17,486.89,431.42,503.3,403.86,489.7Z" fill="#0071f2" data-primary="true"/>
<path d="M294,284.69l16.29-17.91s2-12.32-23.08-18.56L286.71,279S292.81,281.07,294,284.69Z" fill="#f9b499"/>
<path d="M275.16,221.55h12.17a0,0,0,0,1,0,0v408.1a2.79,2.79,0,0,1-2.79,2.79h-6.6a2.79,2.79,0,0,1-2.79-2.79V221.55A0,0,0,0,1,275.16,221.55Z" fill="#2f2e41" data-secondary="true"/>
<path d="M275.16,221.55h12.17a0,0,0,0,1,0,0v408.1a2.79,2.79,0,0,1-2.79,2.79h-6.6a2.79,2.79,0,0,1-2.79-2.79V221.55A0,0,0,0,1,275.16,221.55Z" opacity="0.2"/>
<path d="M263.43,186.08a1.44,1.44,0,0,1,1.54,1.39c.06,2.16.73,5.91,4.73,5.69,0,0,3.44,0,3.44,5.61,0,0-1.56,22.15,2,22.78h12.17s1.72,0,1.4-3.12l.32-20.28s.31-5.31,4.05-5a5.52,5.52,0,0,0,3-5.36,1.46,1.46,0,0,1,1.44-1.51h11.83s6.24,0,7.17-10.61l6-77.79a2.17,2.17,0,0,0-2.46-2.32h0a2.17,2.17,0,0,0-1.85,2l-7,76.92s-1.25,7.48-5.31,7.48l-12-.27a1.75,1.75,0,0,1-1.71-1.75V99.27a1.73,1.73,0,0,0-1.89-1.72h0a1.73,1.73,0,0,0-1.57,1.69l-1.17,80.51a3.41,3.41,0,0,1-3.48,3.36l-11.42-.19a3.42,3.42,0,0,1-3.35-3.31l-2.64-81.52a2,2,0,0,0-2-2h0a2,2,0,0,0-2,2.09l2.6,79.11a4.15,4.15,0,0,1-4.15,4.28H248.53a4.14,4.14,0,0,1-4.13-3.76L237.18,99a2.25,2.25,0,0,0-2.7-2h0a2.23,2.23,0,0,0-1.76,2.35l5.69,78.26a10.1,10.1,0,0,0,10.68,9.36Z" fill="#0071f2" data-primary="true"/>
<path d="M383.42,113a80.63,80.63,0,0,1,.21,10.66s7.12,16.34,28.12,8.41Z" fill="#f7a48b"/>
<path d="M383,92.36a3.58,3.58,0,0,0-4.6-.1l.2-.5s-1.23-2.71-.63-9.05a45.65,45.65,0,0,1,9.2-1.38S385,84.07,383,92.36Z" fill="#2f2e41" data-secondary="true"/>
<path d="M429.4,103.86s5.56-6.66,5.77-12.23l-7.82-3.31A46.59,46.59,0,0,1,429.4,103.86Z" fill="#2f2e41" data-secondary="true"/>
<path d="M429.45,101.75c0,12.58-5.05,23.54-12.47,29.11a18.69,18.69,0,0,1-11.25,3.95c-10.16,0-18.8-8.88-22.19-21.38A44.73,44.73,0,0,1,382,101.75c0-18.28,10.62-33.09,23.72-33.09S429.45,83.47,429.45,101.75Z" fill="#f9b499"/>
<path d="M383.19,73.55s6.66-25.14,19.23-24.4L418,48.78s11.46.37,13.68,12.94l3.75,21.17S396.87,73.55,383.19,73.55Z" fill="#0071f2" data-primary="true"/>
<path d="M383.19,73.55l1-3.13S419.3,65,435,80.75l.36,2.14S396.25,75,383.19,73.55Z" fill="#2f2e41" data-secondary="true"/>
<path d="M376.34,95.8s-19.13-13.28-13.26-20.33a5.62,5.62,0,0,1,3.34-1.83c3.5-.6,13-1.53,30.26,1.59,0,0,21.84,3.12,50.23,10.29,0,0,7.89,1,5.26,6.25a7,7,0,0,1-3.15,3c-3.25,1.67-10.69,5-16.15,3.8,0,0,2.19-4.05,2.19-6.86,0,0-28.64-15.09-56.55-9.17a.74.74,0,0,0-.57.69c-.05,1.69-.11,6.78.92,9.1Z" fill="#0071f2" data-primary="true"/>
<ellipse cx="380.61" cy="99.56" rx="5.15" ry="8.11" fill="#f9b499"/>
<path d="M354.88,164.45s9.67-10.29,16.53-4.68c0,0,18.4,18.09,23.71,27.76l-6.86-16.22s-6.61-9.83-10-27.14c0,0-.53-.67.61-2.83,0,0,2.85-3.72,4.09-12,0,0-7.95-.32-13.88,11.23,0,0-7.8,13.26-12.17,17C356.9,157.59,353.32,161.8,354.88,164.45Z" fill="#0071f2" data-primary="true"/>
<path d="M354.88,164.45s9.67-10.29,16.53-4.68c0,0,18.4,18.09,23.71,27.76l-6.86-16.22s-6.61-9.83-10-27.14c0,0-.53-.67.61-2.83,0,0,2.85-3.72,4.09-12,0,0-7.95-.32-13.88,11.23,0,0-7.8,13.26-12.17,17C356.9,157.59,353.32,161.8,354.88,164.45Z" fill="#fff" opacity="0.2"/>
<path d="M395.35,186.75a.15.15,0,0,0,.26.13c3.75-4.91,27.87-35.81,36.64-28.2,0,0,3.12,4.06,5,3.12,0,0,2.34-3.27-4.06-11.23,0,0-12.63-18.56-15.91-17.47l.47,11.07s-.32,6.54-2,7.48a75.44,75.44,0,0,0-14,20.6A100.79,100.79,0,0,0,395.35,186.75Z" fill="#0071f2" data-primary="true"/>
<path d="M395.35,186.75a.15.15,0,0,0,.26.13c3.75-4.91,27.87-35.81,36.64-28.2,0,0,3.12,4.06,5,3.12,0,0,2.34-3.27-4.06-11.23,0,0-12.63-18.56-15.91-17.47l.47,11.07s-.32,6.54-2,7.48a75.44,75.44,0,0,0-14,20.6A100.79,100.79,0,0,0,395.35,186.75Z" fill="#fff" opacity="0.2"/>
<path d="M430.92,212.19A2.68,2.68,0,1,1,433,209,2.68,2.68,0,0,1,430.92,212.19Z" fill="none" stroke="#fff" stroke-miterlimit="10"/>
<path d="M359.45,213a4,4,0,0,1-4.22-1.9,3.88,3.88,0,0,1-.47-1.23,4,4,0,1,1,4.69,3.13Z" fill="none" stroke="#fff" stroke-miterlimit="10"/>
<path d="M495.3,203.35s3.56-1.22,5,.88c0,0,9.59,8,4.91,10.06,0,0-11,4.11-15.53,8.15a3.4,3.4,0,0,1-3.6.56c-3.46-1.47-9.47-4.56-7.77-7.77C478.27,215.23,483.33,207.15,495.3,203.35Z" fill="#2f2e41" data-secondary="true"/>
<path d="M287.33,290.32V279.16a11.91,11.91,0,0,1,4.9,2.67,7.74,7.74,0,0,1,2.46,5.81l-.07,8.63S289.43,297.11,287.33,290.32Z" fill="#f9b499"/>
<path d="M275.15,278.43s-9.81-1-9.81,8.17c0,0-2.81,8.65-1.17,11.69,0,0,3.27,13.11,9.82,15.45,0,0,8.9,2.34,9.6-4.68,0,0,11.7-3.51,4.68-8.89,0,0,1.17-4.68-3.75-4.92,0,0,3.27-4.49-3.94-5.27a4.23,4.23,0,0,1-2.81-1.51l-2.08-2.58a3.4,3.4,0,0,1-.49-2.1Z" fill="#f9b499"/>
<path d="M267.91,290.81l5.82,4a5.74,5.74,0,0,0,3.68,1l7.11-.55" fill="none" stroke="#f7a48b" stroke-miterlimit="10"/>
<path d="M269.55,300.17s10.06,6.78,18.72,0" fill="none" stroke="#f7a48b" stroke-miterlimit="10"/>
<path d="M272.59,307.89a51,51,0,0,0,11,1.17" fill="none" stroke="#f7a48b" stroke-miterlimit="10"/>
<path d="M427.18,224.8c0,6.37-9.23,17.71-15.59,17.71s-7.46-11.34-7.46-17.71a11.53,11.53,0,0,1,23.05,0Z" fill="#0071f2" data-primary="true"/>
<path d="M427.18,224.8c0,6.37-9.23,17.71-15.59,17.71s-7.46-11.34-7.46-17.71a11.53,11.53,0,0,1,23.05,0Z" fill="#fafafa" opacity="0.5" style="isolation:isolate"/>
<path d="M421.47,211.3a6.05,6.05,0,0,0-3.14,4.46,6.1,6.1,0,0,0,8.59-4.62A6.08,6.08,0,0,0,421.47,211.3Z" fill="#0071f2" data-primary="true"/>
<path d="M421.47,211.3a6.05,6.05,0,0,0-3.14,4.46,6.1,6.1,0,0,0,8.59-4.62A6.08,6.08,0,0,0,421.47,211.3Z" fill="#fafafa" opacity="0.2" style="isolation:isolate"/>
<path d="M415.55,214.14a3.6,3.6,0,0,0,2.8,1.59,3.58,3.58,0,0,0-2.16-4.6,3.77,3.77,0,0,0-1-.21A3.64,3.64,0,0,0,415.55,214.14Z" fill="#0071f2" data-primary="true"/>
<path d="M415.55,214.14a3.6,3.6,0,0,0,2.8,1.59,3.58,3.58,0,0,0-2.16-4.6,3.77,3.77,0,0,0-1-.21A3.64,3.64,0,0,0,415.55,214.14Z" fill="#fafafa" opacity="0.2" style="isolation:isolate"/>
<path d="M471.82,220.46c2.08,6-3,19.75-9,21.82S452.1,234,450,228a11.53,11.53,0,1,1,21.68-7.83l.12.34Z" fill="#0071f2" data-primary="true"/>
<path d="M471.82,220.46c2.08,6-3,19.75-9,21.82S452.1,234,450,228a11.53,11.53,0,1,1,21.68-7.83l.12.34Z" fill="#fafafa" opacity="0.4" style="isolation:isolate"/>
<path d="M462,209.55a6.13,6.13,0,0,0-1.51,5.23,6.07,6.07,0,0,0,6.68-5.42,5.77,5.77,0,0,0-.07-1.76A6.07,6.07,0,0,0,462,209.55Z" fill="#0071f2" data-primary="true"/>
<path d="M462,209.55a6.13,6.13,0,0,0-1.51,5.23,6.07,6.07,0,0,0,6.68-5.42,5.77,5.77,0,0,0-.07-1.76A6.07,6.07,0,0,0,462,209.55Z" fill="#fafafa" opacity="0.2" style="isolation:isolate"/>
<path d="M457.35,214.14a1.81,1.81,0,0,0,0-3.61,1.78,1.78,0,0,0-1.45.7A3.6,3.6,0,0,0,457.35,214.14Z" fill="#0071f2" data-primary="true"/>
<path d="M457.35,214.14a1.81,1.81,0,0,0,0-3.61,1.78,1.78,0,0,0-1.45.7A3.6,3.6,0,0,0,457.35,214.14Z" fill="#fafafa" opacity="0.2" style="isolation:isolate"/>
<path d="M426.76,222.31c-.66,7.45,8.94,21.67,16.38,22.33s9.89-12.48,10.56-19.91a13.53,13.53,0,1,0-26.87-3.12C426.8,221.84,426.78,222.08,426.76,222.31Z" fill="#0071f2" data-primary="true"/>
<path d="M426.76,222.31c-.66,7.45,8.94,21.67,16.38,22.33s9.89-12.48,10.56-19.91a13.53,13.53,0,1,0-26.87-3.12C426.8,221.84,426.78,222.08,426.76,222.31Z" fill="#fafafa" opacity="0.5" style="isolation:isolate"/>
<path d="M434.86,207.13a7.08,7.08,0,0,1,3.19,5.54,7.13,7.13,0,0,1-9.13-4.27,7,7,0,0,1-.42-2A7.1,7.1,0,0,1,434.86,207.13Z" fill="#0071f2" data-primary="true"/>
<path d="M434.86,207.13a7.08,7.08,0,0,1,3.19,5.54,7.13,7.13,0,0,1-9.13-4.27,7,7,0,0,1-.42-2A7.1,7.1,0,0,1,434.86,207.13Z" fill="#fafafa" opacity="0.2" style="isolation:isolate"/>
<path d="M441.48,211.09a4.3,4.3,0,0,1-3.45,1.58,4.22,4.22,0,0,1,3.09-5.11,4.53,4.53,0,0,1,1.16-.12A4.25,4.25,0,0,1,441.48,211.09Z" fill="#0071f2" data-primary="true"/>
<path d="M441.48,211.09a4.3,4.3,0,0,1-3.45,1.58,4.22,4.22,0,0,1,3.09-5.11,4.53,4.53,0,0,1,1.16-.12A4.25,4.25,0,0,1,441.48,211.09Z" fill="#fafafa" opacity="0.2" style="isolation:isolate"/>
<path d="M471.35,217.05c-2.36,7.09,3.74,23.15,10.82,25.5s12.49-9.89,14.84-17a13.52,13.52,0,1,0-25.42-9.23c-.09.23-.17.48-.24.72Z" fill="#0071f2" data-primary="true"/>
<path d="M471.35,217.05c-2.36,7.09,3.74,23.15,10.82,25.5s12.49-9.89,14.84-17a13.52,13.52,0,1,0-25.42-9.23c-.09.23-.17.48-.24.72Z" fill="#fafafa" opacity="0.5" style="isolation:isolate"/>
<path d="M483.36,204.13a7.16,7.16,0,0,1,1.83,6.13,7.14,7.14,0,0,1-7.91-6.28,7.05,7.05,0,0,1,.06-2A7.18,7.18,0,0,1,483.36,204.13Z" fill="#0071f2" data-primary="true"/>
<path d="M483.36,204.13a7.16,7.16,0,0,1,1.83,6.13,7.14,7.14,0,0,1-7.91-6.28,7.05,7.05,0,0,1,.06-2A7.18,7.18,0,0,1,483.36,204.13Z" fill="#fafafa" opacity="0.2" style="isolation:isolate"/>
<path d="M488.18,209.51a2.12,2.12,0,1,1,1.64-3.43A4.3,4.3,0,0,1,488.18,209.51Z" fill="#0071f2" data-primary="true"/>
<path d="M488.18,209.51a2.12,2.12,0,1,1,1.64-3.43A4.3,4.3,0,0,1,488.18,209.51Z" fill="#fafafa" opacity="0.2" style="isolation:isolate"/>
<polygon points="480.02 249.85 519.54 249.85 508.07 223.09 468.56 223.09 480.02 249.85" fill="#0071f2" data-primary="true"/>
<rect x="436.56" y="223.08" width="71.47" height="59.1" fill="#0071f2" data-primary="true"/>
<rect x="436.56" y="223.08" width="71.47" height="59.1" fill="#fafafa" opacity="0.3" style="isolation:isolate"/>
<rect x="398.79" y="223.08" width="55.39" height="59.1" fill="#0071f2" data-primary="true"/>
<rect x="398.79" y="223.08" width="55.39" height="59.1" fill="#e0e0e0" opacity="0.1" style="isolation:isolate"/>
<polygon points="398.79 252.64 444.59 252.64 454.17 223.09 398.79 223.09 398.79 252.64" opacity="0.35" style="isolation:isolate"/>
<polygon points="442.71 249.85 387.33 249.85 398.79 223.09 454.17 223.09 442.71 249.85" fill="#0071f2" data-primary="true"/>
<path d="M514.37,249.82c6.24,11.61,13.12,28.22,5.37,34.21,0,0-12.2,11.24-33.49,14,0,0-4.44-.23-1.64-3.51,0,0-4.44-2.57,4.92-7,0,0-4.21-2.34,1.87-5.39H508v-6.44s-12.7,1.78-10.8-2.39a3.63,3.63,0,0,1,2.64-2c3.07-.6,5.9-1.37,8.11-.81,0,0-.14-7.93.14-20.72Z" fill="#f9b499"/>
<line x1="507.15" y1="282.67" x2="489.37" y2="287.58" fill="none" stroke="#f7a48b" stroke-miterlimit="10"/>
<line x1="505.89" y1="289.69" x2="484.6" y2="294.6" fill="none" stroke="#f7a48b" stroke-miterlimit="10"/>
</svg>